HIERARCHY
ROOT Hips
{
	OFFSET 0.000000 0.000000 0.000000
	CHANNELS 6 Xposition Yposition Zposition Yrotation Xrotation Zrotation
	JOINT Chest
	{
		OFFSET 0.000000 -0.009281 11.569106
		CHANNELS 3 Yrotation Xrotation Zrotation
		JOINT Chest2
		{
			OFFSET -0.000000 0.016865 9.269641
			CHANNELS 3 Yrotation Xrotation Zrotation
			JOINT Chest3
			{
				OFFSET -0.000000 0.000001 8.374491
				CHANNELS 3 Yrotation Xrotation Zrotation
				JOINT Chest4
				{
					OFFSET -0.000000 0.000001 8.374493
					CHANNELS 3 Yrotation Xrotation Zrotation
					JOINT Neck
					{
						OFFSET -0.000000 0.000002 12.152554
						CHANNELS 3 Yrotation Xrotation Zrotation
						JOINT Head
						{
							OFFSET -0.000000 0.040101 7.802319
							CHANNELS 3 Yrotation Xrotation Zrotation
							End Site
							{
								OFFSET -0.000000 0.020947 14.853096
							}
						}
					}
					JOINT RightCollar
					{
						OFFSET 2.894404 0.000001 6.791374
						CHANNELS 3 Yrotation Xrotation Zrotation
						JOINT RightShoulder
						{
							OFFSET 13.574684 0.000001 0.000000
							CHANNELS 3 Yrotation Xrotation Zrotation
							JOINT RightElbow
							{
								OFFSET 23.923903 0.000002 0.000000
								CHANNELS 3 Yrotation Xrotation Zrotation
								JOINT RightWrist
								{
									OFFSET 19.846718 0.012767 0.000000
									CHANNELS 3 Yrotation Xrotation Zrotation
									End Site
									{
										OFFSET 14.973145 0.000001 0.000000
									}
								}
							}
						}
					}
					JOINT LeftCollar
					{
						OFFSET -2.894404 0.000001 6.791374
						CHANNELS 3 Yrotation Xrotation Zrotation
						JOINT LeftShoulder
						{
							OFFSET -13.574684 -0.000001 0.000000
							CHANNELS 3 Yrotation Xrotation Zrotation
							JOINT LeftElbow
							{
								OFFSET -23.923903 -0.000002 0.000000
								CHANNELS 3 Yrotation Xrotation Zrotation
								JOINT LeftWrist
								{
									OFFSET -19.846718 0.012763 0.000000
									CHANNELS 3 Yrotation Xrotation Zrotation
									End Site
									{
										OFFSET -14.973145 -0.000001 0.000000
									}
								}
							}
						}
					}
				}
			}
		}
	}
	JOINT RightHip
	{
		OFFSET 9.469263 0.004643 0.045487
		CHANNELS 3 Yrotation Xrotation Zrotation
		JOINT RightKnee
		{
			OFFSET 0.000000 0.002661 -40.478676
			CHANNELS 3 Yrotation Xrotation Zrotation
			JOINT RightAnkle
			{
				OFFSET 0.000000 0.049106 -35.224068
				CHANNELS 3 Yrotation Xrotation Zrotation
				JOINT RightToe
				{
					OFFSET -0.000001 12.539529 -6.151390
					CHANNELS 3 Yrotation Xrotation Zrotation
					End Site
					{
						OFFSET -0.000001 5.044994 -1.291870
					}
				}
			}
		}
	}
	JOINT LeftHip
	{
		OFFSET -9.469263 0.004641 0.045487
		CHANNELS 3 Yrotation Xrotation Zrotation
		JOINT LeftKnee
		{
			OFFSET 0.000000 0.002661 -40.478676
			CHANNELS 3 Yrotation Xrotation Zrotation
			JOINT LeftAnkle
			{
				OFFSET 0.000000 0.049106 -35.224068
				CHANNELS 3 Yrotation Xrotation Zrotation
				JOINT LeftToe
				{
					OFFSET -0.000001 12.539529 -6.151390
					CHANNELS 3 Yrotation Xrotation Zrotation
					End Site
					{
						OFFSET -0.000001 5.044994 -1.291870
					}
				}
			}
		}
	}
}
MOTION
Frames: 11
Frame Time: 0.016667
-45.037254 48.952572 83.052040 -7.561752 -0.425854 -97.901951 -0.947161 -4.317194 -0.200705 -0.420819 -1.922530 -0.051481 -0.420819 -1.922530 -0.051482 -0.315746 -1.441864 -0.039930 4.834079 -22.000154 -8.165932 6.456737 -4.575872 -13.408314 8.513290 1.115792 -2.234317 45.623061 -18.762649 -4.877418 17.666146 -37.705110 41.634412 -28.395289 42.144064 67.436787 -6.856569 1.540801 -3.445350 -44.917400 -10.678721 4.633822 -41.076645 -52.706671 -13.572270 16.033563 18.529917 -59.100404 2.365942 -5.386756 -18.692723 1.433945 -4.473927 -9.073350 0.547270 3.758888 12.930346 -0.121252 -0.011588 -0.073146 -4.823816 -9.123277 -8.024510 -0.239282 -3.707853 3.174786 3.356515 3.945011 8.997835 -0.112325 0.035693 0.051863 
-45.068447 48.894527 83.045372 -7.604981 -0.406239 -97.907108 -0.970969 -4.329440 -0.210211 -0.427566 -1.927408 -0.053887 -0.427566 -1.927409 -0.053888 -0.320814 -1.445520 -0.041761 4.839215 -22.045699 -8.170850 6.467993 -4.659922 -13.416081 8.507718 1.123985 -2.248444 45.647244 -18.759166 -4.859308 17.647537 -37.707620 41.598126 -28.387735 42.138186 67.446479 -6.856538 1.544606 -3.444621 -44.883191 -10.681583 4.614730 -41.089960 -52.717265 -13.585412 16.050053 18.527156 -59.118552 2.367959 -5.356671 -18.770417 1.456592 -4.599391 -9.063752 0.480584 3.866707 12.969407 -0.095451 -0.027257 -0.081031 -4.807526 -9.055556 -8.142604 -0.284092 -3.890613 3.186812 3.384290 4.027454 9.148835 -0.118956 0.033481 0.056796 
-45.107803 48.831623 83.035805 -7.635869 -0.390725 -97.911295 -0.997837 -4.330333 -0.219657 -0.436805 -1.927694 -0.056065 -0.436805 -1.927693 -0.056066 -0.327750 -1.445731 -0.043425 4.847096 -22.098522 -8.175289 6.484869 -4.757263 -13.422265 8.522734 1.150272 -2.253909 45.675804 -18.759774 -4.863878 17.631601 -37.718087 41.545087 -28.387788 42.125724 67.445885 -6.851340 1.567728 -3.448789 -44.843795 -10.701005 4.614796 -41.101439 -52.742728 -13.597554 16.068063 18.519856 -59.130594 2.361849 -5.324857 -18.875165 1.475799 -4.719851 -9.048732 0.431497 3.979410 13.051109 -0.072367 -0.046777 -0.082040 -4.770303 -8.953370 -8.312543 -0.344397 -4.118369 3.190210 3.414658 4.136291 9.349253 -0.128153 0.025846 0.056863 
-45.145599 48.780338 83.023491 -7.659515 -0.375315 -97.907476 -1.027285 -4.327163 -0.236985 -0.445199 -1.925370 -0.058412 -0.445200 -1.925370 -0.058413 -0.334053 -1.443986 -0.045208 4.851737 -22.151910 -8.177933 6.496444 -4.855833 -13.426136 8.526368 1.157476 -2.263093 45.709170 -18.771672 -4.856598 17.623075 -37.714034 41.496121 -28.382511 42.106771 67.449026 -6.844561 1.577249 -3.451907 -44.801502 -10.693979 4.597907 -41.113559 -52.780427 -13.599702 16.078498 18.497254 -59.141310 2.377886 -5.264918 -19.020982 1.486225 -4.850530 -9.020739 0.370795 4.107746 12.943503 -0.058758 -0.069027 -0.089938 -4.744920 -8.816687 -8.554453 -0.406941 -4.404324 3.187637 3.463716 4.266772 9.527561 -0.141879 0.020555 0.056911 
-45.202995 48.719769 83.008347 -7.672571 -0.374735 -97.915516 -1.045761 -4.316341 -0.247801 -0.451933 -1.921532 -0.058652 -0.451933 -1.921533 -0.058652 -0.339103 -1.441107 -0.045406 4.852793 -22.203519 -8.179079 6.501844 -4.951337 -13.428303 8.528750 1.168718 -2.272012 45.737587 -18.800108 -4.850064 17.619559 -37.709956 41.443952 -28.375130 42.102348 67.450010 -6.836703 1.579374 -3.446327 -44.759162 -10.687727 4.572781 -41.120870 -52.818819 -13.611421 16.105453 18.467897 -59.140320 2.374812 -5.193690 -19.131157 1.502199 -5.005964 -9.034732 0.341745 4.226252 13.127423 -0.049719 -0.085421 -0.084464 -4.707185 -8.626958 -8.843335 -0.471043 -4.760047 3.153542 3.524666 4.421734 9.799751 -0.165035 0.010093 0.051256 
-45.264595 48.669079 82.990829 -7.696283 -0.376926 -97.930692 -1.066451 -4.317813 -0.258153 -0.457104 -1.921898 -0.057482 -0.457104 -1.921898 -0.057480 -0.342977 -1.441382 -0.044544 4.847551 -22.246285 -8.173326 6.497136 -5.030774 -13.419718 8.529754 1.186035 -2.268443 45.761403 -18.817870 -4.838370 17.634121 -37.715898 41.381435 -28.368976 42.098540 67.452872 -6.832369 1.596829 -3.438650 -44.719759 -10.689202 4.558634 -41.111168 -52.850132 -13.650370 16.135986 18.428195 -59.125123 2.389070 -5.094362 -19.191016 1.513074 -5.200195 -9.097529 0.301078 4.356495 13.281521 -0.047326 -0.099770 -0.084318 -4.685252 -8.399779 -9.136995 -0.534195 -5.188758 3.078683 3.605362 4.595221 10.106123 -0.194009 0.000309 0.045319 
-45.356186 48.605015 82.970642 -7.719823 -0.390517 -97.957747 -1.075951 -4.320376 -0.264876 -0.459900 -1.925176 -0.053898 -0.459900 -1.925176 -0.053897 -0.345062 -1.443843 -0.041869 4.834927 -22.281520 -8.162791 6.479875 -5.096699 -13.404485 8.513284 1.171399 -2.271419 45.776829 -18.821447 -4.789757 17.670842 -37.728404 41.312829 -28.369368 42.086383 67.457045 -6.832116 1.615522 -3.424590 -44.685625 -10.688247 4.545746 -41.080005 -52.882825 -13.715454 16.177930 18.380217 -59.105561 2.398966 -4.981551 -19.193547 1.548469 -5.407465 -9.124285 0.239903 4.485012 13.358112 -0.042865 -0.113179 -0.077418 -4.676802 -8.140787 -9.409400 -0.551972 -5.687157 3.122601 3.656181 4.812152 10.391411 -0.226873 -0.012856 0.043077 
-45.469135 48.532314 82.948898 -7.747546 -0.405536 -97.989801 -1.089232 -4.333289 -0.269762 -0.463784 -1.932404 -0.048364 -0.463784 -1.932405 -0.048364 -0.347958 -1.449268 -0.037736 4.820112 -22.307821 -8.146957 6.459447 -5.146156 -13.380224 8.501695 1.166190 -2.278488 45.790661 -18.846314 -4.736617 17.708242 -37.730668 41.253130 -28.379839 42.082240 67.461266 -6.823899 1.633335 -3.426502 -44.658792 -10.656810 4.538369 -41.016929 -52.927993 -13.800145 16.200749 18.328150 -59.092802 2.431541 -4.854104 -19.142008 1.588479 -5.603381 -9.066040 0.143451 4.593894 13.278013 -0.044346 -0.122043 -0.077181 -4.693323 -7.834250 -9.634242 -0.510476 -6.252513 3.390924 3.653563 5.052231 10.438663 -0.263238 -0.024030 0.046744 
-45.616642 48.452309 82.926804 -7.776298 -0.422570 -98.014615 -1.105130 -4.344481 -0.277930 -0.468082 -1.939256 -0.042193 -0.468082 -1.939257 -0.042192 -0.351162 -1.454412 -0.033128 4.807105 -22.339151 -8.130514 6.442803 -5.204777 -13.354402 8.499181 1.164761 -2.291682 45.797894 -18.896572 -4.692652 17.742292 -37.725150 41.207368 -28.394544 42.093831 67.469872 -6.815341 1.644840 -3.427371 -44.632954 -10.630592 4.527296 -40.949098 -52.976259 -13.883877 16.224742 18.271442 -59.086505 2.450966 -4.720080 -19.042123 1.655762 -5.789939 -9.042029 0.038788 4.672662 13.278858 -0.051130 -0.126607 -0.073750 -4.698688 -7.482898 -9.825694 -0.466518 -6.876724 3.628615 3.652262 5.294139 10.367484 -0.310397 -0.027976 0.043762 
-45.781837 48.371876 82.905113 -7.807618 -0.438773 -98.031315 -1.128575 -4.359198 -0.292465 -0.473085 -1.944861 -0.038356 -0.473085 -1.944861 -0.038355 -0.354902 -1.458617 -0.030269 4.796756 -22.375963 -8.109549 6.432580 -5.273297 -13.319724 8.504830 1.144979 -2.303822 45.799967 -18.932579 -4.637428 17.765640 -37.721024 41.168320 -28.397920 42.095866 67.482474 -6.807174 1.650936 -3.422605 -44.599643 -10.612431 4.509477 -40.879515 -53.021799 -13.965036 16.249739 18.199451 -59.089073 2.484122 -4.564737 -18.963687 1.747445 -5.978030 -9.082800 -0.101217 4.747132 13.154157 -0.063242 -0.128350 -0.079821 -4.725612 -7.070982 -9.978956 -0.419760 -7.595248 3.785166 3.668644 5.534463 10.424448 -0.358379 -0.010879 0.043402 
-45.972271 48.285683 82.883873 -7.835970 -0.455670 -98.043588 -1.160569 -4.387039 -0.302922 -0.479748 -1.955492 -0.033766 -0.479748 -1.955493 -0.033767 -0.359884 -1.466594 -0.026859 4.795682 -22.407081 -8.091735 6.437763 -5.330701 -13.288121 8.518284 1.185618 -2.323987 45.816578 -18.968883 -4.610285 17.765705 -37.732885 41.132581 -28.406390 42.086557 67.490643 -6.789415 1.675739 -3.427273 -44.559574 -10.604463 4.478891 -40.811101 -53.076700 -14.041177 16.278234 18.139857 -59.096839 2.497581 -4.388110 -18.914705 1.833812 -6.197380 -9.116517 -0.221837 4.812281 13.160663 -0.074542 -0.123667 -0.082245 -4.755568 -6.606826 -10.117962 -0.361156 -8.380060 3.940184 3.661200 5.759669 10.546517 -0.399064 0.026406 0.039841 
